<svg xmlns:xlink="http://www.w3.org/1999/xlink" width="32" height="32" viewBox="0 0 31 32" fill="none" xmlns="http://www.w3.org/2000/svg">
<rect x="0.75" y="0.875" width="30.25" height="30.25" rx="15.125" fill="#FFFFFF"></rect>
<path d="M11.6554 15.0513C12.7848 17.2707 14.6042 19.0824 16.8237 20.2195L18.5491 18.4942C18.7608 18.2824 19.0745 18.2118 19.349 18.306C20.2274 18.5961 21.1763 18.753 22.1488 18.753C22.5802 18.753 22.9331 19.1059 22.9331 19.5372V22.2743C22.9331 22.7056 22.5802 23.0586 22.1488 23.0586C14.7846 23.0586 8.81641 17.0903 8.81641 9.72615C8.81641 9.29481 9.16932 8.94189 9.60067 8.94189H12.3456C12.7769 8.94189 13.1298 9.29481 13.1298 9.72615C13.1298 10.7065 13.2867 11.6476 13.5769 12.526C13.6631 12.8005 13.6004 13.1063 13.3808 13.3259L11.6554 15.0513Z" fill="#1A1A1A"></path>
</svg>