<svg xmlns:xlink="http://www.w3.org/1999/xlink" width="32" height="32" viewBox="0 0 27 27" fill="none" xmlns="http://www.w3.org/2000/svg">
<rect width="26.0537" height="26.2772" rx="13.0268" fill="#FFFFFF"></rect>
<path d="M7.35147 17.5118C6.96532 17.9066 6.97237 18.5397 7.36722 18.9259C7.76207 19.312 8.3952 19.305 8.78135 18.9101L7.35147 17.5118ZM18.9867 8.0559C18.9805 7.50365 18.5279 7.06095 17.9756 7.0671L8.97616 7.16737C8.42391 7.17353 7.98121 7.6262 7.98737 8.17845C7.99352 8.7307 8.4462 9.1734 8.99845 9.16725L16.9979 9.07812L17.0871 17.0776C17.0932 17.6299 17.5459 18.0726 18.0982 18.0664C18.6504 18.0603 19.0931 17.6076 19.087 17.0553L18.9867 8.0559ZM8.78135 18.9101L18.7017 8.76622L17.2718 7.36785L7.35147 17.5118L8.78135 18.9101Z" fill="#0A0A0A"></path>
</svg>