<svg xmlns:xlink="http://www.w3.org/1999/xlink" width="16" height="16" viewBox="0 0 16 16" fill="none" xmlns="http://www.w3.org/2000/svg">
<g clip-path="url(#clip0_410_326)" fill="none">
<path d="M1.00042 6.99805C0.448134 6.99782 0.000231226 7.44534 1.04678e-07 7.99763C-0.000231017 8.54991 0.447297 8.99782 0.999582 8.99805L1.00042 6.99805ZM15.7068 8.71131C16.0975 8.32095 16.0978 7.68778 15.7074 7.29709L9.34611 0.930471C8.95574 0.539784 8.32258 0.539519 7.93189 0.929879C7.5412 1.32024 7.54094 1.95341 7.9313 2.34409L13.5858 8.00331L7.92657 13.6578C7.53588 14.0482 7.53561 14.6813 7.92597 15.072C8.31633 15.4627 8.9495 15.463 9.34019 15.0726L15.7068 8.71131ZM0.999582 8.99805L14.9996 9.00391L15.0004 7.00391L1.00042 6.99805L0.999582 8.99805Z" fill="#FFFFFF"></path>
</g>
<defs>
<clipPath id="clip0_410_326">
<rect width="16" height="16" fill="white"></rect>
</clipPath>
</defs>
</svg>